<svg class="h-9" viewBox="0 0 190 36" fill="none" xmlns="http://www.w3.org/2000/svg">
                        <g clip-path="url(#clip0_8562_69358)">
                            <path fill-rule="evenodd" clip-rule="evenodd"
                                d="M133.052 27.1028C132.475 27.11 131.903 27.0026 131.368 26.7868C130.833 26.571 130.346 26.2512 129.935 25.8458C129.111 25.0216 128.555 23.7697 128.555 22.0801C128.555 20.3698 129.111 19.1231 129.935 18.2989C130.348 17.8974 130.835 17.5815 131.37 17.3694C131.905 17.1572 132.477 17.0529 133.052 17.0625C134.227 17.0625 135.344 17.4747 136.169 18.2989C136.993 19.1231 137.544 20.3698 137.544 22.0801C137.544 23.7904 136.993 25.037 136.169 25.8613C135.757 26.2627 135.269 26.5786 134.734 26.7908C134.199 27.003 133.627 27.1073 133.052 27.0977V27.1028ZM133.052 11.5968C127.087 11.5968 122.569 15.9858 122.569 22.0801C122.569 28.1331 127.087 32.5634 133.052 32.5634C139.018 32.5634 143.535 28.1331 143.535 22.0801C143.535 15.9858 139.018 11.5968 133.052 11.5968ZM83.4533 27.2471C82.8763 27.2542 82.304 27.1468 81.7687 26.931C81.234 26.7153 80.7472 26.3954 80.3366 25.9901C79.5124 25.1658 78.9612 23.9191 78.9612 22.2294C78.9612 20.5191 79.5175 19.2673 80.3366 18.4482C80.7493 18.0453 81.2376 17.7281 81.7734 17.515C82.3091 17.3019 82.882 17.1971 83.4584 17.2067C84.633 17.2067 85.7509 17.624 86.5751 18.4431C87.3993 19.2674 87.9506 20.5192 87.9506 22.2243C87.9506 23.9347 87.3942 25.1865 86.5751 26.0056C86.1625 26.4085 85.6741 26.7257 85.1383 26.9388C84.6026 27.1519 84.0297 27.2567 83.4533 27.2471ZM83.4533 11.741C77.493 11.741 72.9751 16.1353 72.9751 22.2243C72.9751 28.2825 77.493 32.7076 83.4533 32.7076C89.4187 32.7076 93.9366 28.2774 93.9366 22.2243C93.9366 16.1353 89.4187 11.7462 83.4584 11.7462L83.4533 11.741ZM159.835 32.4964H165.785V20.6789C165.785 19.7001 166.094 18.8501 166.63 18.2525C166.927 17.9293 167.291 17.6744 167.697 17.5054C168.102 17.3364 168.54 17.2574 168.979 17.2737C170.05 17.2737 170.782 17.6343 171.251 18.1804C171.73 18.7367 171.972 19.5456 171.972 20.5243V32.4964H177.886V20.6789C177.886 19.7259 178.195 18.8758 178.731 18.2628C179.02 17.9398 179.377 17.684 179.775 17.5131C180.174 17.3423 180.605 17.2606 181.038 17.2737C182.136 17.2737 182.862 17.6343 183.326 18.1804C183.8 18.7367 184.037 19.5456 184.037 20.5243V32.4964H189.832V19.4631C189.832 16.7998 188.956 14.8577 187.571 13.5904C186.195 12.3283 184.361 11.7668 182.522 11.7668C181.208 11.7668 180.008 11.9934 178.931 12.5343C178.009 12.9979 177.201 13.678 176.49 14.6259C175.341 12.7559 173.244 11.7668 170.771 11.7668C168.958 11.7668 166.872 12.488 165.553 13.8789V12.251H159.835V32.4964ZM157.594 12.2665V18.3298L157.13 18.237C156.579 18.1288 156.1 18.0876 155.657 18.0876C154.395 18.0876 153.272 18.3967 152.468 19.1488C151.67 19.8958 151.118 21.1374 151.118 23.1362V32.4964H145.184V12.251H150.964V14.2085C152.391 12.4879 154.611 12.1479 156.007 12.1479C156.45 12.1479 156.857 12.1943 157.244 12.2304L157.594 12.2665ZM50.5969 22.7395H56.3975L56.4645 22.8065C56.5057 22.8477 56.5366 22.9095 56.5418 22.9765C56.567 23.521 56.6999 24.0551 56.9333 24.5477C57.1672 25.0404 57.4963 25.4816 57.9018 25.8458C58.6652 26.4689 59.6265 26.7979 60.6115 26.7731C61.157 26.7914 61.7 26.6907 62.2023 26.4781C62.705 26.2655 63.1553 25.946 63.5221 25.5419C64.235 24.6771 64.607 23.5814 64.5678 22.4613V5.5025H70.8424V22.6365C70.8424 28.1228 66.6439 32.7076 60.6527 32.7076C57.6648 32.7076 55.1509 31.7134 53.389 29.9877C51.6684 28.3031 50.6433 25.8974 50.5969 22.9713V22.7395ZM121.729 8.24829L122.059 8.34617V3.75099L121.904 3.68402C121.571 3.55162 121.224 3.45995 120.869 3.41099C120.431 3.33887 119.916 3.2925 119.39 3.2925C117.345 3.2925 115.048 3.9725 113.858 5.19341C112.668 6.40919 112.008 8.14526 112.008 10.2265V11.195H109.02V16.4701H112.008V32.4964H118.01V16.4701H122.059V11.195H118.01V10.2986C118.01 9.36616 118.334 8.82526 118.751 8.51616C119.197 8.2129 119.728 8.05948 120.266 8.07829C121.039 8.07829 121.492 8.18132 121.729 8.24829ZM106.872 27.7622L107.181 27.6643V32.2749L107.037 32.347C106.821 32.4501 106.47 32.548 106.063 32.6201C105.651 32.6871 105.172 32.7334 104.672 32.7334C102.756 32.7334 100.603 32.0534 99.4848 30.8274C98.3669 29.6065 97.7487 27.8652 97.7487 25.7788V16.4701H94.9412V11.2207H97.7487V5.53341H103.379V11.2259H107.181V16.4804H103.379V25.7067C103.379 26.6443 103.688 27.1852 104.08 27.4994C104.482 27.824 105.012 27.9374 105.502 27.9374C106.228 27.9374 106.651 27.8343 106.872 27.7673V27.7622Z"
                                fill="#0A1551" />
                            <path
                                d="M9.23542 33.3156C9.87421 33.9337 9.42088 35.0001 8.51421 35.0001H2.80633C2.27436 35.007 1.76137 34.8026 1.3799 34.4318C0.998428 34.0609 0.779625 33.5539 0.771484 33.0219V27.4995C0.771484 26.6134 1.86876 26.1756 2.5127 26.7989L9.23542 33.3156Z"
                                fill="#0A1551" />
                            <path
                                d="M18.1424 33.7432C17.7421 33.3457 17.4244 32.873 17.2076 32.3523C16.9908 31.8315 16.8792 31.273 16.8792 30.7089C16.8792 30.1449 16.9908 29.5863 17.2076 29.0656C17.4244 28.5448 17.7421 28.0721 18.1424 27.6747L24.2314 21.6268C25.0439 20.8208 26.1419 20.3686 27.2863 20.3686C28.4307 20.3686 29.5287 20.8208 30.3411 21.6268C30.7415 22.0243 31.0592 22.497 31.2759 23.0177C31.4928 23.5384 31.6043 24.097 31.6043 24.6611C31.6043 25.2252 31.4928 25.7836 31.2759 26.3044C31.0592 26.8252 30.7415 27.2979 30.3411 27.6953L24.252 33.7432C23.4396 34.5491 22.3416 35.0014 21.1972 35.0014C20.0528 35.0014 18.9548 34.5491 18.1424 33.7432Z"
                                fill="#FFB629" />
                            <path
                                d="M2.05934 18.541C1.65905 18.1436 1.34136 17.6709 1.12456 17.1502C0.907757 16.6294 0.796143 16.0709 0.796143 15.5068C0.796143 14.9427 0.907757 14.3842 1.12456 13.8634C1.34136 13.3427 1.65905 12.87 2.05934 12.4725L12.3057 2.288C13.1181 1.48203 14.2162 1.02979 15.3606 1.02979C16.5049 1.02979 17.603 1.48203 18.4154 2.288C18.8157 2.68543 19.1334 3.15815 19.3502 3.6789C19.567 4.19965 19.6786 4.75816 19.6786 5.32224C19.6786 5.88633 19.567 6.44484 19.3502 6.96561C19.1334 7.48633 18.8157 7.95903 18.4154 8.35647L8.16392 18.541C7.35168 19.3454 6.25476 19.7967 5.11162 19.7967C3.96849 19.7967 2.87156 19.3454 2.05934 18.541Z"
                                fill="#0099FF" />
                            <path
                                d="M10.4357 25.8047C10.0354 25.4072 9.71767 24.9345 9.50089 24.4137C9.28407 23.893 9.17249 23.3344 9.17249 22.7704C9.17249 22.2063 9.28407 21.6478 9.50089 21.127C9.71767 20.6063 10.0354 20.1336 10.4357 19.7362L24.2778 5.9816C25.0902 5.17563 26.1882 4.72338 27.3327 4.72338C28.477 4.72338 29.5751 5.17563 30.3875 5.9816C30.7878 6.37901 31.1055 6.85176 31.3223 7.37248C31.5391 7.89324 31.6507 8.45177 31.6507 9.01586C31.6507 9.5799 31.5391 10.1384 31.3223 10.6592C31.1055 11.18 30.7878 11.6527 30.3875 12.0501L16.5454 25.8047C15.7329 26.6106 14.6349 27.0629 13.4905 27.0629C12.3461 27.0629 11.2481 26.6106 10.4357 25.8047Z"
                                fill="#FF6100" />
                        </g>
                        <defs>
                            <clipPath id="clip0_8562_69358">
                                <rect width="189" height="36" fill="white" transform="translate(0.5)" />
                            </clipPath>
                        </defs>
                    </svg>