 <svg class="h-9" viewBox="0 0 142 36" fill="none" xmlns="http://www.w3.org/2000/svg">
                        <g clip-path="url(#clip0_8562_69354)">
                            <path
                                d="M58.7812 9V27H55.6562V12.875H55.6146L50.0312 27H47.9479L42.2396 12.875H42.1979V27H39.323V9H43.8229L48.9896 22.3333H49.0729L54.5312 9H58.7812ZM61.3646 10.375C61.3646 9.875 61.5312 9.45833 61.9062 9.125C62.2812 8.79167 62.6979 8.625 63.1979 8.625C63.7396 8.625 64.1979 8.79167 64.5312 9.125C64.8646 9.45833 65.0729 9.875 65.0729 10.375C65.0729 10.875 64.9062 11.2917 64.5312 11.625C64.1562 11.9583 63.7396 12.125 63.1979 12.125C62.6562 12.125 62.2396 11.9583 61.9062 11.625C61.5729 11.25 61.3646 10.8333 61.3646 10.375ZM64.7396 14.0833V27H61.6979V14.0833H64.7396ZM73.9479 24.7916C74.4062 24.7916 74.9062 24.7083 75.4479 24.4583C75.9896 24.25 76.4896 23.9583 76.9479 23.625V26.4583C76.4479 26.75 75.9062 26.9583 75.2812 27.0833C74.6562 27.2083 73.9896 27.2916 73.2396 27.2916C71.3229 27.2916 69.7812 26.7083 68.6146 25.5C67.4062 24.2917 66.8229 22.75 66.8229 20.9167C66.8229 18.8333 67.4479 17.125 68.6562 15.7917C69.8646 14.4583 71.5729 13.7917 73.8229 13.7917C74.4062 13.7917 74.9896 13.875 75.5312 14C76.1146 14.125 76.5729 14.3333 76.9062 14.5V17.4166C76.4479 17.0833 75.9479 16.7917 75.4896 16.625C74.9896 16.4583 74.4896 16.3333 73.9896 16.3333C72.7812 16.3333 71.8229 16.7083 71.0729 17.5C70.3229 18.2916 69.9896 19.3333 69.9896 20.6667C69.9896 21.9583 70.3646 23 71.0729 23.7083C71.7812 24.4167 72.7396 24.7916 73.9479 24.7916ZM85.5729 13.875C85.8229 13.875 86.0312 13.875 86.2396 13.9167C86.4479 13.9583 86.6146 14 86.7396 14.0417V17.125C86.5729 17 86.3646 16.875 86.0312 16.7916C85.6979 16.7083 85.3646 16.625 84.9062 16.625C84.1562 16.625 83.5312 16.9583 83.0312 17.5833C82.5312 18.2083 82.2396 19.1667 82.2396 20.5V27H79.1979V14.0833H82.2396V16.125H82.2812C82.5729 15.4167 82.9896 14.875 83.5312 14.4583C84.1146 14.0833 84.7812 13.875 85.5729 13.875ZM86.9062 20.75C86.9062 18.625 87.5312 16.9167 88.6979 15.6667C89.9062 14.4167 91.5729 13.7917 93.6979 13.7917C95.6979 13.7917 97.2813 14.375 98.4063 15.5833C99.5313 16.7917 100.115 18.4167 100.115 20.4583C100.115 22.5417 99.4896 24.2083 98.3229 25.4583C97.1146 26.7083 95.4896 27.3333 93.4063 27.3333C91.4063 27.3333 89.8229 26.75 88.6562 25.5833C87.4896 24.375 86.9062 22.75 86.9062 20.75ZM90.0729 20.625C90.0729 21.9583 90.3646 23 90.9896 23.7083C91.6146 24.4167 92.4896 24.7916 93.6146 24.7916C94.6979 24.7916 95.5729 24.4583 96.1563 23.7083C96.7396 23 97.0312 21.9583 97.0312 20.5416C97.0312 19.1666 96.7396 18.125 96.1563 17.375C95.5729 16.6667 94.6979 16.2917 93.6563 16.2917C92.5313 16.2917 91.6979 16.6666 91.0729 17.4166C90.3646 18.2083 90.0729 19.25 90.0729 20.625ZM104.656 17.5C104.656 17.9166 104.781 18.2916 105.073 18.5416C105.365 18.7916 105.948 19.0833 106.906 19.4583C108.115 19.9583 108.99 20.5 109.448 21.0833C109.948 21.7083 110.198 22.4167 110.198 23.2917C110.198 24.5 109.74 25.4583 108.781 26.2083C107.865 26.9583 106.573 27.2916 104.99 27.2916C104.448 27.2916 103.865 27.2083 103.198 27.0833C102.531 26.9583 101.99 26.7916 101.531 26.5833V23.5833C102.073 23.9583 102.698 24.2916 103.323 24.5C103.948 24.7083 104.531 24.8333 105.073 24.8333C105.74 24.8333 106.281 24.75 106.573 24.5417C106.906 24.3333 107.073 24.0417 107.073 23.5833C107.073 23.1667 106.906 22.8333 106.573 22.5C106.24 22.2083 105.573 21.875 104.656 21.5C103.531 21.0417 102.74 20.5 102.281 19.9166C101.823 19.3333 101.573 18.5833 101.573 17.6667C101.573 16.5 102.031 15.5416 102.948 14.7916C103.865 14.0416 105.073 13.6667 106.531 13.6667C106.99 13.6667 107.49 13.7083 108.031 13.8333C108.573 13.9583 109.073 14.0833 109.448 14.2083V17.1667C109.031 16.9167 108.573 16.6666 108.031 16.4583C107.49 16.25 106.948 16.1667 106.448 16.1667C105.865 16.1667 105.406 16.2917 105.115 16.5C104.823 16.7917 104.656 17.0833 104.656 17.5ZM111.49 20.75C111.49 18.625 112.115 16.9167 113.281 15.6667C114.49 14.4167 116.156 13.7917 118.281 13.7917C120.281 13.7917 121.865 14.375 122.99 15.5833C124.115 16.7917 124.698 18.4167 124.698 20.4583C124.698 22.5417 124.073 24.2083 122.906 25.4583C121.698 26.7083 120.073 27.3333 117.99 27.3333C115.99 27.3333 114.406 26.75 113.24 25.5833C112.115 24.375 111.49 22.75 111.49 20.75ZM114.656 20.625C114.656 21.9583 114.948 23 115.573 23.7083C116.198 24.4167 117.073 24.7916 118.198 24.7916C119.281 24.7916 120.156 24.4583 120.74 23.7083C121.323 23 121.615 21.9583 121.615 20.5416C121.615 19.1666 121.323 18.125 120.74 17.375C120.156 16.6667 119.281 16.2917 118.24 16.2917C117.115 16.2917 116.281 16.6666 115.656 17.4166C114.99 18.2083 114.656 19.25 114.656 20.625ZM134.823 16.5833H130.281V27H127.198V16.5833H125.031V14.0833H127.198V12.2917C127.198 10.9583 127.656 9.83333 128.531 8.95833C129.406 8.08333 130.531 7.66667 131.906 7.66667C132.281 7.66667 132.615 7.70833 132.906 7.70833C133.198 7.70833 133.448 7.79167 133.656 7.875V10.5C133.573 10.4583 133.365 10.375 133.115 10.2917C132.865 10.2083 132.573 10.1667 132.24 10.1667C131.615 10.1667 131.115 10.375 130.781 10.75C130.448 11.125 130.281 11.75 130.281 12.5V14.0417H134.823V11.125L137.865 10.2083V14.0417H140.948V16.5417H137.865V22.5833C137.865 23.375 138.031 23.9167 138.281 24.25C138.573 24.5833 139.031 24.75 139.656 24.75C139.823 24.75 140.031 24.7083 140.281 24.625C140.531 24.5417 140.74 24.4583 140.906 24.3333V26.8333C140.698 26.9583 140.406 27.0417 139.948 27.125C139.49 27.2083 139.073 27.25 138.615 27.25C137.323 27.25 136.365 26.9166 135.74 26.25C135.115 25.5833 134.781 24.5417 134.781 23.1667L134.823 16.5833Z"
                                fill="#737373" />
                            <path d="M14.5313 3H0.28125V17.25H14.5313V3Z" fill="#F25022" />
                            <path d="M30.2813 3H16.0312V17.25H30.2813V3Z" fill="#7FBA00" />
                            <path d="M14.5313 18.75H0.28125V33H14.5313V18.75Z" fill="#00A4EF" />
                            <path d="M30.2813 18.75H16.0312V33H30.2813V18.75Z" fill="#FFB900" />
                        </g>
                        <defs>
                            <clipPath id="clip0_8562_69354">
                                <rect width="141" height="36" fill="white" transform="translate(0.5)" />
                            </clipPath>
                        </defs>
                    </svg>  