<svg class="h-9" viewBox="0 0 100 36" fill="none" xmlns="http://www.w3.org/2000/svg">
                        <g clip-path="url(#clip0_8562_69363)">
                            <path
                                d="M2.54567 2.46628L21.359 1.07681C23.6699 0.878473 24.2637 1.01221 25.7167 2.06847L31.7222 6.29921C32.7127 7.02681 33.0425 7.22514 33.0425 8.01734V31.2201C33.0425 32.6742 32.5144 33.5344 30.6659 33.6659L8.81867 34.9885C7.43147 35.0542 6.77073 34.8559 6.04427 33.9299L1.622 28.1794C0.828667 27.1209 0.5 26.3287 0.5 25.4027V4.77828C0.5 3.58941 1.02813 2.59774 2.54567 2.46628Z"
                                fill="white" />
                            <path fill-rule="evenodd" clip-rule="evenodd"
                                d="M21.359 1.07681L2.54567 2.46628C1.02813 2.59774 0.5 3.58941 0.5 4.77828V25.4027C0.5 26.3287 0.828667 27.1209 1.622 28.1794L6.04427 33.9299C6.77073 34.8559 7.43147 35.0542 8.81867 34.9885L30.6659 33.6659C32.5133 33.5344 33.0425 32.6742 33.0425 31.2201V8.01734C33.0425 7.26594 32.7456 7.04948 31.8718 6.40801C31.8215 6.37179 31.7713 6.33552 31.7211 6.29921L25.7167 2.06847C24.2637 1.01221 23.6699 0.878473 21.359 1.07681ZM9.3128 7.63768C7.52893 7.75781 7.12433 7.78501 6.11113 6.96108L3.53507 4.91201C3.27327 4.64681 3.40473 4.31588 4.06433 4.25014L22.1501 2.92868C23.6687 2.79608 24.4598 3.32534 25.0537 3.78774L28.1556 6.03514C28.2882 6.10201 28.618 6.49754 28.2213 6.49754L9.544 7.62181L9.3128 7.63768ZM7.23313 31.0218V11.3244C7.23313 10.4642 7.4972 10.0675 8.28827 10.0007L29.74 8.74494C30.4676 8.67921 30.7963 9.14161 30.7963 10.0007V29.5666C30.7963 30.4268 30.6637 31.1544 29.4759 31.2201L8.94787 32.4101C7.76013 32.4759 7.23313 32.0803 7.23313 31.0218ZM27.4971 12.3807C27.6286 12.9757 27.4971 13.5707 26.9021 13.6387L25.9127 13.8348V28.3777C25.0537 28.8401 24.2626 29.1042 23.6019 29.1042C22.5456 29.1042 22.2815 28.7733 21.4905 27.7827L15.0203 17.6031V27.4518L17.0671 27.9153C17.0671 27.9153 17.0671 29.1053 15.4158 29.1053L10.8632 29.3694C10.7306 29.1042 10.8632 28.4435 11.3245 28.312L12.5133 27.9822V14.9602L10.8632 14.8265C10.7306 14.2315 11.0604 13.3724 11.9852 13.3055L16.8699 12.9769L23.6019 23.2879V14.1657L21.886 13.9685C21.7534 13.2398 22.2815 12.7105 22.9411 12.6459L27.4971 12.3807Z"
                                fill="black" />
                            <path
                                d="M47.4587 25.0842V16.1196H47.614L54.0785 25.0842H56.114V11.9104H53.8507V20.866H53.6954L47.2309 11.9104H45.1875V25.0831H47.4598L47.4587 25.0842ZM62.5105 25.286C65.4968 25.286 67.3136 23.3321 67.3136 20.0908C67.3136 16.8585 65.4878 14.8956 62.5105 14.8956C59.5434 14.8956 57.7086 16.8676 57.7086 20.0908C57.7086 23.3321 59.5162 25.286 62.5105 25.286ZM62.5105 23.3865C60.9318 23.3865 60.0285 22.1818 60.0285 20.0908C60.0285 18.0088 60.9318 16.795 62.5105 16.795C64.0813 16.795 64.9846 18.0088 64.9846 20.0908C64.9846 22.1818 64.0904 23.3865 62.5105 23.3865ZM69.3819 12.6504V15.1608H67.8032V16.9684H69.3819V22.4186C69.3819 24.3544 70.2954 25.1307 72.587 25.1307C73.0244 25.1307 73.4449 25.0854 73.7736 25.0208V23.2494C73.4993 23.2766 73.3259 23.2947 73.0063 23.2947C72.0577 23.2947 71.6372 22.8572 71.6372 21.8712V16.9684H73.7736V15.1608H71.6372V12.6493H69.3819V12.6504ZM75.1302 25.0842H77.3855V15.0962H75.1302V25.0842ZM76.2533 13.4449C77.0013 13.4449 77.6042 12.8408 77.6042 12.0838C77.6042 11.3256 77.0024 10.7136 76.2533 10.7136C75.5144 10.7136 74.9024 11.3256 74.9024 12.0838C74.9024 12.8408 75.5144 13.4438 76.2533 13.4438V13.4449ZM83.5724 25.286C86.5576 25.286 88.3743 23.3321 88.3743 20.0908C88.3743 16.8585 86.5485 14.8956 83.5724 14.8956C80.6042 14.8956 78.7693 16.8676 78.7693 20.0908C78.7693 23.3321 80.577 25.286 83.5724 25.286ZM83.5724 23.3865C81.9925 23.3865 81.0881 22.1818 81.0881 20.0908C81.0881 18.0088 81.9925 16.795 83.5724 16.795C85.142 16.795 86.0464 18.0088 86.0464 20.0908C86.0464 22.1818 85.1511 23.3865 83.5724 23.3865ZM89.7218 25.0842H91.9862V19.2691C91.9862 17.7992 92.8362 16.8676 94.186 16.8676C95.5653 16.8676 96.2034 17.6348 96.2034 19.1592V25.0842H98.4689V18.6208C98.4689 16.2374 97.254 14.8956 95.027 14.8956C93.5378 14.8956 92.5336 15.5801 92.0588 16.6942H91.9035V15.0962H89.7218V25.0842Z"
                                fill="black" />
                        </g>
                        <defs>
                            <clipPath id="clip0_8562_69363">
                                <rect width="99" height="36" fill="white" transform="translate(0.5)" />
                            </clipPath>
                        </defs>
                    </svg>   