<svg class="h-9" viewBox="0 0 120 36" fill="none" xmlns="http://www.w3.org/2000/svg">
                        <g clip-path="url(#clip0_8562_69352)">
                            <path
                                d="M2.50597 14.6871H14.0468V17.9219L9.6962 18.261C2.68833 18.7827 0.5 20.6349 0.5 25.8523V26.8958C0.5 30.7044 3.15726 33.0001 7.2734 33.0001C10.5038 33.0001 12.3795 32.2436 14.6721 29.8958H15.0628V32.374H19.7V9.6001H2.50597V14.6871ZM14.0468 25.6697C12.614 27.1044 10.4778 28.0436 8.70626 28.0436C6.8045 28.0436 5.99688 27.3392 6.04898 25.7479C6.10108 23.5566 6.90866 23.0349 10.582 22.6958L14.0728 22.3566V25.6697H14.0468Z"
                                fill="#F18618" />
                            <path fill-rule="evenodd" clip-rule="evenodd"
                                d="M29.6086 9.78174H38.5644V14.3891H43.4613V32.3788H37.7526V14.855H29.6086V32.3788H23.8999V3H29.6086V9.78174ZM112.987 18.893L109.53 18.5565C107.618 18.3753 107.147 17.8835 107.147 16.3822C107.147 14.6738 107.828 14.2597 110.499 14.2597C112.882 14.2597 113.563 14.648 113.903 16.2528H119.272C119.14 10.843 117.438 9.47112 110.787 9.47112C103.507 9.47112 101.674 10.843 101.674 16.3822C101.674 21.4556 103.009 22.8274 108.43 23.3451L111.258 23.604C113.799 23.8369 114.427 24.3029 114.427 25.83C114.427 27.6678 113.668 28.1596 110.551 28.1596C107.828 28.1596 107.095 27.7455 106.964 25.9853H101.543C101.674 31.5764 103.402 33 110.315 33C117.988 33 119.9 31.4728 119.9 25.3123C119.9 20.7308 118.512 19.4107 112.987 18.893ZM83.6317 19.3072C83.6317 12.0077 81.0913 9.4452 73.8115 9.4452C66.6103 9.4452 63.8083 12.7584 63.8083 21.0155C63.8083 30.0233 66.2959 33 74.3617 33C80.1487 33 82.6105 31.2398 83.4217 26.3218H77.9227C77.2945 27.849 76.6399 28.1855 74.2831 28.1855C70.7479 28.1855 69.8311 27.2019 69.6217 22.9828H83.2909C83.5003 21.7403 83.6053 20.5237 83.6317 19.3072ZM69.6481 18.5047C69.7003 15.3209 70.9831 14.1562 74.0473 14.1562C76.9801 14.1562 78.1585 15.3469 78.2635 18.5047H69.6481ZM86.9569 10.7912V32.4047H92.6659V14.648H99.5269V9.8076H92.6659V9.18636C92.7181 7.86626 93.0589 7.478 94.1587 7.478H100.391V3.02589H93.6871C89.1043 3 86.9569 4.39776 86.9569 10.7912ZM53.3336 32.3788H47.6249V9.78174H61.8181V15.088H53.3336V32.3788Z"
                                fill="#1F49D2" />
                        </g>
                        <defs>
                            <clipPath id="clip0_8562_69352">
                                <rect width="119" height="36" fill="white" transform="translate(0.5)" />
                            </clipPath>
                        </defs>
                    </svg> 