  <svg class="h-9" viewBox="0 0 124 36" fill="none" xmlns="http://www.w3.org/2000/svg">
                        <g clip-path="url(#clip0_8562_69367)">
                            <path fill-rule="evenodd" clip-rule="evenodd"
                                d="M93.832 31.9504C93.832 33.4981 92.5981 34.6814 91.0446 34.6814C89.5365 34.6814 88.3028 33.4981 88.3028 31.9504V3.73093C88.3028 2.22892 89.4909 1 91.0446 1C92.5981 1 93.832 2.22892 93.832 3.73093V31.9504ZM40.156 4.23183C40.156 5.87039 38.7852 6.96276 37.0031 6.96276C35.221 6.96276 33.8501 5.87039 33.8501 4.23183V3.95874C33.8501 2.32018 35.221 1.27333 37.0031 1.27333C38.7852 1.27333 40.156 2.32018 40.156 3.95874V4.23183ZM28.3739 30.7216C25.358 33.3614 21.9309 35 16.7674 35C7.44563 35 0.5 27.7631 0.5 18.6144V18.5235C0.5 9.46587 7.30855 2.04685 16.9958 2.04685C21.9309 2.04685 25.1753 3.50335 27.9627 5.64257C28.5567 6.09773 29.0594 6.87148 29.0594 7.87282C29.0594 9.42034 27.8256 10.6037 26.272 10.6037C25.4951 10.6037 24.9467 10.3307 24.5812 10.0576C22.3879 8.28246 20.0118 7.19009 16.9502 7.19009C10.8727 7.19009 6.39464 12.1968 6.39464 18.4324V18.5235C6.39464 24.7591 10.8271 29.8112 16.9502 29.8112C20.3316 29.8112 22.6164 28.7189 24.9469 26.7617C25.358 26.3976 25.952 26.1245 26.6375 26.1245C28.0541 26.1245 29.2878 27.3079 29.2878 28.7189C29.2878 29.5837 28.8765 30.2664 28.3739 30.7216ZM37.0046 34.6814C38.5581 34.6814 39.792 33.4981 39.792 31.9504V12.925C39.792 11.3775 38.5581 10.1486 37.0046 10.1486C35.4509 10.1486 34.2629 11.3775 34.2629 12.925V31.9504C34.2629 33.4981 35.4966 34.6814 37.0046 34.6814ZM51.4841 31.9504C51.4841 33.4525 50.2504 34.6814 48.6967 34.6814C47.1888 34.6814 45.9551 33.4981 45.9551 31.9504V12.925C45.9551 11.3775 47.1431 10.1486 48.6967 10.1486C50.2504 10.1486 51.4841 11.3775 51.4841 12.925V15.3828C52.7636 12.3789 55.1397 10.1031 57.5616 10.1031C59.2979 10.1031 60.3032 11.241 60.3032 12.834C60.3032 14.2905 59.3437 15.2464 58.1099 15.4739C54.1802 16.1566 51.4841 19.1606 51.4841 24.85V31.9504ZM74.0974 35C78.1186 35 80.7231 33.6345 82.8708 31.5864C83.3734 31.1767 83.6476 30.585 83.6476 29.8568C83.6476 28.5368 82.5966 27.4445 81.2715 27.4445C80.6318 27.4445 80.0835 27.7631 79.7636 28.0362C78.2557 29.3106 76.5649 30.1754 74.3716 30.1754C70.1219 30.1754 67.1518 26.7617 67.1518 22.4833V22.3922C67.1518 18.2048 70.1219 14.7456 74.1432 14.7456C76.3364 14.7456 77.8901 15.6104 79.3067 16.7938C79.6722 17.0669 80.2662 17.34 80.9517 17.34C82.3682 17.34 83.5105 16.2477 83.5105 14.8367C83.5105 13.9263 83.0079 13.2436 82.6423 12.925C80.586 11.1499 77.9815 9.92102 74.1888 9.92102C66.9233 9.92102 61.6227 15.6559 61.6227 22.4833V22.5743C61.6227 29.4017 66.9233 35 74.0974 35ZM111.056 35C114.802 35 117.544 33.771 119.738 31.8138C120.149 31.4043 120.469 30.8125 120.469 30.1299C120.469 28.8554 119.509 27.8996 118.275 27.8996C117.636 27.8996 117.27 28.0816 116.859 28.4002C115.305 29.6746 113.477 30.4939 111.147 30.4939C107.583 30.4939 104.795 28.3092 104.201 24.3949H119.326C120.743 24.3949 121.931 23.3025 121.931 21.7549C121.931 16.2021 118.138 9.92097 110.461 9.92097C103.562 9.92097 98.6722 15.5649 98.6722 22.4377V22.5287C98.6722 29.9477 104.064 35 111.056 35ZM104.155 20.7538H116.539C116.173 17.2035 114.071 14.4271 110.416 14.4271C107.034 14.4271 104.658 17.0215 104.155 20.7538Z"
                                fill="#3E45EB" />
                        </g>
                        <defs>
                            <clipPath id="clip0_8562_69367">
                                <rect width="123" height="36" fill="white" transform="translate(0.5)" />
                            </clipPath>
                        </defs>
                    </svg>  